<svg xmlns="http://www.w3.org/2000/svg" width="377" height="103" viewBox="0 0 377 103">
    <defs>
        <filter id="a" width="111.7%" height="153.2%" x="-5.6%" y="-24%" filterUnits="objectBoundingBox">
            <feOffset dx="1" dy="2" in="SourceAlpha" result="shadowOffsetOuter1"/>
            <feGaussianBlur in="shadowOffsetOuter1" result="shadowBlurOuter1" stdDeviation="6.5"/>
            <feColorMatrix in="shadowBlurOuter1" result="shadowMatrixOuter1" values="0 0 0 0 0 0 0 0 0 0 0 0 0 0 0 0 0 0 0.5 0"/>
            <feMerge>
                <feMergeNode in="shadowMatrixOuter1"/>
                <feMergeNode in="SourceGraphic"/>
            </feMerge>
        </filter>
    </defs>
    <g fill="none" fill-rule="evenodd" filter="url(#a)" transform="translate(12 11)">
        <rect width="351" height="77" fill="#1F3264" rx="38.5"/>
        <text fill="#FFF" font-family="Graphik-Semibold, Graphik" font-size="23" font-weight="500" letter-spacing=".115">
            <tspan x="31" y="46">Checkout on </tspan>
        </text>
        <g fill="#FFF" fill-rule="nonzero">
            <path d="M210.654 36.114h-10.331a.484.484 0 0 0-.486.482v5c0 .255.205.483.486.483h4.015v6.22s-.895.304-3.401.304c-2.941 0-7.058-1.066-7.058-10.052 0-8.986 4.296-10.18 8.31-10.18 3.478 0 4.987.61 5.933.914.307.102.588-.203.588-.482l1.151-4.848a.489.489 0 0 0-.179-.381c-.383-.254-2.736-1.574-8.72-1.574C194.058 22 187 24.92 187 38.906c0 13.987 8.08 16.069 14.908 16.069 5.652 0 9.078-2.387 9.078-2.387.154-.076.154-.279.154-.355V36.596c0-.28-.23-.482-.486-.482zM263.843 23.675a.484.484 0 0 0-.486-.482h-5.805a.484.484 0 0 0-.485.482V34.82h-9.053V23.675a.484.484 0 0 0-.486-.482h-5.805a.484.484 0 0 0-.485.482v30.183c0 .254.204.482.485.482h5.805a.501.501 0 0 0 .486-.482V40.937h9.053l-.026 12.92c0 .255.205.483.486.483h5.83a.501.501 0 0 0 .486-.482V23.675zM221.624 27.635a3.757 3.757 0 0 0-3.759-3.757 3.735 3.735 0 0 0-3.733 3.757c0 2.082 1.687 3.757 3.733 3.757a3.757 3.757 0 0 0 3.76-3.757zM221.215 47.486V33.55a.484.484 0 0 0-.486-.482h-5.805c-.255 0-.511.279-.511.533v19.952c0 .584.358.762.844.762h5.216c.563 0 .716-.28.716-.762.026-1.066.026-5.255.026-6.067zM285.911 33.118h-5.753a.501.501 0 0 0-.486.483V48.4s-1.458 1.066-3.555 1.066c-2.07 0-2.633-.94-2.633-2.97V33.601a.484.484 0 0 0-.486-.483h-5.856a.501.501 0 0 0-.486.483v13.885c0 5.99 3.375 7.463 8.004 7.463 3.81 0 6.879-2.081 6.879-2.081s.153 1.091.204 1.218c.077.127.23.254.435.254l3.733-.025a.501.501 0 0 0 .486-.483V33.575a.48.48 0 0 0-.486-.457zM301.69 32.458c-3.274 0-5.499 1.447-5.499 1.447v-10.23a.484.484 0 0 0-.486-.482h-5.83a.484.484 0 0 0-.486.482v30.183c0 .254.205.482.486.482h4.04a.456.456 0 0 0 .41-.254c.102-.152.255-1.396.255-1.396s2.378 2.234 6.905 2.234c5.293 0 8.336-2.666 8.336-11.982-.026-9.29-4.859-10.484-8.132-10.484zm-2.277 16.983c-1.994-.051-3.35-.965-3.35-.965v-9.544s1.33-.813 2.992-.965c2.072-.178 4.066.431 4.066 5.356-.025 5.179-.92 6.22-3.708 6.118zM237.913 33.068h-4.347v-5.712c0-.228-.102-.33-.358-.33h-5.933c-.23 0-.358.102-.358.33v5.915s-2.966.71-3.17.761a.488.488 0 0 0-.358.457v3.706c0 .28.204.483.485.483h3.043v8.935c0 6.625 4.68 7.285 7.851 7.285 1.458 0 3.17-.456 3.452-.558.18-.05.281-.228.281-.432v-4.086a.501.501 0 0 0-.485-.483c-.256 0-.895.102-1.586.102-2.148 0-2.864-.99-2.864-2.26v-8.478h4.347a.484.484 0 0 0 .486-.482V33.55c-.025-.254-.23-.482-.486-.482z"/>
        </g>
    </g>
</svg>
