<svg xmlns="http://www.w3.org/2000/svg" width="58" height="48" viewBox="0 0 58 48">
    <path fill="#FFF" fill-rule="evenodd" d="M58 5.58a23.777 23.777 0 0 1-6.834 1.873A11.937 11.937 0 0 0 56.398.87a23.82 23.82 0 0 1-7.557 2.888A11.882 11.882 0 0 0 40.156 0c-6.572 0-11.9 5.328-11.9 11.899 0 .933.105 1.84.308 2.712-9.89-.496-18.657-5.234-24.526-12.433A11.844 11.844 0 0 0 2.427 8.16c0 4.129 2.1 7.77 5.293 9.905a11.852 11.852 0 0 1-5.39-1.489v.15c0 5.765 4.101 10.575 9.545 11.668a11.912 11.912 0 0 1-5.374.204c1.514 4.727 5.909 8.168 11.116 8.263a23.874 23.874 0 0 1-14.778 5.094A24.2 24.2 0 0 1 0 41.79a33.682 33.682 0 0 0 18.24 5.346c21.888 0 33.857-18.132 33.857-33.856 0-.516-.012-1.03-.035-1.54A24.178 24.178 0 0 0 58 5.58"/>
</svg>
